HIERARCHY
ROOT ui
{
	 OFFSET 0 0 0
	 CHANNELS 3 XPosition YPosition Z Position
	 EndSite
	 {
	 OFFSET 0 -1 0
	 }
}
ROOT li
{
	 OFFSET 0 0 0
	 CHANNELS 3 XPosition YPosition Z Position
	 EndSite
	 {
	 OFFSET 0 -1 0
	 }
}
ROOT ul
{
	 OFFSET 0 0 0
	 CHANNELS 3 XPosition YPosition Z Position
	 EndSite
	 {
	 OFFSET 0 -1 0
	 }
}
ROOT ll
{
	 OFFSET 0 0 0
	 CHANNELS 3 XPosition YPosition Z Position
	 EndSite
	 {
	 OFFSET 0 -1 0
	 }
}
ROOT tt
{
	 OFFSET 0 0 0
	 CHANNELS 3 XPosition YPosition Z Position
	 EndSite
	 {
	 OFFSET 0 -1 0
	 }
}
ROOT tb
{
	 OFFSET 0 0 0
	 CHANNELS 3 XPosition YPosition Z Position
	 EndSite
	 {
	 OFFSET 0 -1 0
	 }
}
ROOT td
{
	 OFFSET 0 0 0
	 CHANNELS 3 XPosition YPosition Z Position
	 EndSite
	 {
	 OFFSET 0 -1 0
	 }
}
ROOT v
{
	 OFFSET 0 0 0
	 CHANNELS 3 XPosition YPosition Z Position
	 EndSite
	 {
	 OFFSET 0 -1 0
	 }
}
ROOT bn
{
	 OFFSET 0 0 0
	 CHANNELS 3 XPosition YPosition Z Position
	 EndSite
	 {
	 OFFSET 0 -1 0
	 }
}
MOTION
Frames: 13
Frame Time: 0.002
0.013785939216613769	0.0028839271068572996	0		0.42787106323242186	-2.316324462890625	0		-1.0561826171875	0.11247042083740234	0		-0.5908075561523437	-2.6832685546875	0		1.673410400390625	-0.24554058837890624	0		3.25807763671875	0.4208208923339844	0		4.56206689453125	0.10991028594970703	0		5.9482919921875	0.42921722412109375	0		-0.2132296142578125	5.86741552734375	0		
0.015338831901550293	-0.005560063838958741	0		0.4534565734863281	-2.322005126953125	0		-1.05555078125	0.11203402709960937	0		-0.6182484741210937	-2.6914267578125	0		1.6700035400390625	-0.24993238830566405	0		3.2377099609375	0.42059979248046875	0		4.5647578125	0.11546379852294922	0		5.962833984375	0.4196553039550781	0		-0.2116278076171875	5.86497119140625	0		
-0.04105459213256836	-4.0076899528503415E-4	0		0.40108642578125	-2.314884765625	0		-1.1270426025390625	0.10734038543701171	0		-0.6506189575195312	-2.684505859375	0		1.6743603515625	-0.2703722534179688	0		3.251381591796875	0.4320718994140625	0		4.56446044921875	0.13007627868652344	0		5.9635556640625	0.436260009765625	0		-0.1959748229980469	5.87541796875	0		
0.012402968406677246	-0.001297302007675171	0		0.4315486450195313	-2.31555322265625	0		-1.05453662109375	0.11125414276123047	0		-0.6461153564453125	-2.680919189453125	0		1.6748209228515625	-0.2707423095703125	0		3.23872314453125	0.4198333740234375	0		4.56405859375	0.14371986389160157	0		5.9591044921875	0.444945556640625	0		-0.19651374816894532	5.8760546875	0		
-0.033173748016357425	0.00581692123413086	0		0.4319041442871094	-2.315892578125	0		-1.09318310546875	0.11129784393310548	0		-0.5677730102539063	-2.683031005859375	0		1.6970732421875	-0.28129666137695314	0		3.25625146484375	0.43732952880859377	0		4.5693310546875	0.13533798217773438	0		5.97645458984375	0.4444468688964844	0		-0.2102890625	5.863853515625	0		
0.01298734474182129	-0.0019437719583511352	0		0.4301210021972656	-2.318178466796875	0		-1.057991943359375	0.10664386749267578	0		-0.6544130249023438	-2.6704794921875	0		1.6711297607421876	-0.2993423767089844	0		3.227365966796875	0.4253158264160156	0		4.564642578125	0.14308843994140624	0		5.972607421875	0.436190673828125	0		-0.2130270233154297	5.867576171875	0		
-0.06690339660644531	-0.001425521969795227	0		0.42821142578125	-2.320429931640625	0		-1.0629261474609375	0.10241920471191407	0		-0.5803651123046875	-2.677483642578125	0		1.7081844482421875	-0.30497634887695313	0		3.252528564453125	0.4308030700683594	0		4.582865234375	0.15464724731445312	0		5.968791015625	0.4439698791503906	0		-0.19585542297363281	5.87513525390625	0		
0.013067713737487793	-0.0024528210163116456	0		0.43021200561523437	-2.318685791015625	0		-1.09691015625	0.10651508331298828	0		-0.6413803100585938	-2.67711962890625	0		1.690973388671875	-0.3240401916503906	0		3.2543837890625	0.41855517578125	0		4.57590966796875	0.16149072265625	0		5.9767646484375	0.4436690673828125	0		-0.19391525268554688	5.8728779296875	0		
-0.05597276306152344	0.009026885032653809	0		0.43613592529296874	-2.31194482421875	0		-1.0870733642578125	0.10521178436279296	0		-0.6334454345703125	-2.669402099609375	0		1.697900634765625	-0.31630523681640627	0		3.25640771484375	0.43634408569335936	0		4.59182470703125	0.16814625549316406	0		5.9767685546875	0.4594866943359375	0		-0.1809591064453125	5.88554736328125	0		
0.02274235725402832	0.007082539081573486	0		0.43385455322265626	-2.314087890625	0		-1.0542972412109375	0.10971692657470702	0		-0.635725341796875	-2.671549560546875	0		1.7075020751953125	-0.32956088256835936	0		3.22196875	0.4195292053222656	0		4.58663232421875	0.17604937744140625	0		5.976337890625	0.4433472900390625	0		-0.19833229064941407	5.87755029296875	0		
-0.040729557037353516	-0.0024239039421081543	0		0.42944046020507814	-2.319174560546875	0		-1.067791748046875	0.09771210479736328	0		-0.5750816650390626	-2.67128271484375	0		1.7019599609375	-0.346630859375	0		3.246648193359375	0.42516958618164064	0		4.5862548828125	0.17594332885742187	0		5.97595947265625	0.4432480163574219	0		-0.21384512329101563	5.8665693359375	0		
0.011803425788879395	-0.0030406010150909424	0		0.4269696044921875	-2.32124609375	0		-1.0622965087890626	0.09355309295654297	0		-0.6484780883789063	-2.66566064453125	0		1.743386962890625	-0.358128662109375	0		3.255062744140625	0.4130059814453125	0		4.594779296875	0.1747868194580078	0		5.96650244140625	0.44427679443359375	0		-0.214343017578125	5.86647412109375	0		
0.011270232200622558	-0.0031015899181365968	0		0.4373919372558594	-2.32741259765625	0		-1.062830322265625	0.09348506927490234	0		-0.6370535278320313	-2.67184375	0		1.7447574462890625	-0.368197509765625	0		3.256703857421875	0.4309456787109375	0		4.58139306640625	0.18988322448730469	0		5.9741240234375	0.46017526245117185	0		-0.19980703735351563	5.87726318359375	0		
